<?xml version="1.0" encoding="utf-8"?>
<!-- Generator: Adobe Illustrator 23.0.1, SVG Export Plug-In . SVG Version: 6.00 Build 0)  -->
<svg version="1.1" id="Layer_2" xmlns="http://www.w3.org/2000/svg" xmlns:xlink="http://www.w3.org/1999/xlink" x="0px" y="0px"
	 viewBox="0 0 499.2 177.2" style="enable-background:new 0 0 499.2 177.2;" xml:space="preserve">
<style type="text/css">
	.st0{fill:#5832CE;}
</style>
<path d="M310.4,0h-42v9.5h42c15.7,0,28.4,12.7,28.4,28.4c0,15.7-12.7,28.4-28.4,28.4h-51.5V9.5V0h-9.5v76h61.1c21,0,38-17,38-38
	S331.4,0,310.4,0z"/>
<rect x="131.8" y="0" class="st0" width="99.1" height="9.5"/>
<rect x="131.8" y="33.2" class="st0" width="99.1" height="9.5"/>
<rect x="131.8" y="66.4" class="st0" width="99.1" height="9.5"/>
<rect x="362.3" y="0" width="9.5" height="76"/>
<polygon points="385.8,76 442.5,0 442.5,14.8 397.4,76 "/>
<polygon points="499.2,76 442.5,0 442.5,14.8 487.7,76 "/>
<path d="M225.7,101.2v24.3c0,23.3-18.9,42.2-42.2,42.2c-23.3,0-42.2-18.9-42.2-42.2v-24.3h-9.5v24.3c0,28.5,23.1,51.7,51.7,51.7
	s51.7-23.1,51.7-51.7v-24.3H225.7z"/>
<path d="M461.2,101.2h-37.4c-21,0-38,17-38,38s17,38,38,38h4.2h33.2c21,0,38-17,38-38S482.2,101.2,461.2,101.2z M461.2,167.7h-37.4
	c-15.7,0-28.4-12.7-28.4-28.4c0-15.7,12.7-28.4,28.4-28.4h37.4c15.7,0,28.4,12.7,28.4,28.4C489.7,154.9,476.9,167.7,461.2,167.7z"/>
<path d="M310.6,101.2h-42v9.5h42c15.7,0,28.4,12.7,28.4,28.4c0,15.7-12.7,28.4-28.4,28.4h-51.5v-56.9v-9.5h-9.5v76h61.1
	c21,0,38-17,38-38S331.6,101.2,310.6,101.2z"/>
<rect x="362.5" y="101.2" width="9.5" height="76"/>
<g>
	<path d="M76,101.2H51.1H21.4c-10.2,0-18.7,7.1-20.8,16.6h10c1.8-4.2,6-7.1,10.8-7.1h0h29.7H76h27.9v66.4h9.5v-66.4v-9.5H76z"/>
	<path d="M54.6,134.5L54.6,134.5l-33.2,0h0c-4.8,0-9-2.9-10.8-7.1h-10c2.2,9.5,10.7,16.6,20.8,16.6h33.2h0c6.5,0,11.8,5.3,11.8,11.8
		c0,6.5-5.3,11.8-11.8,11.8h0H0v9.5h54.6l0,0c11.8,0,21.4-9.6,21.4-21.4S66.4,134.5,54.6,134.5z"/>
</g>
<g>
	<polygon points="56.7,31.2 0,0 0,12.4 0,12.6 56.7,42.8 103.8,17.6 103.8,76 113.4,76 113.4,12.6 113.4,0 	"/>
	<polygon points="0,76 9.5,76 9.5,27 0,21.9 	"/>
</g>
</svg>
